<svg xmlns="http://www.w3.org/2000/svg" version="1.1" viewBox="-5.0 -10.0 110.0 135.0">
 <g fill-rule="evenodd">
  <path d="m17.16 56.023v2.7305c0 0.85938 0.69922 1.5625 1.5625 1.5625 0.86328 0 1.5625-0.70312 1.5625-1.5625v-2.7305c0-0.85938-0.69922-1.5625-1.5625-1.5625-0.86328 0-1.5625 0.70312-1.5625 1.5625z"/>
  <path d="m28.074 56.023v2.7305c0 0.85938 0.69922 1.5625 1.5625 1.5625 0.85938 0 1.5625-0.70312 1.5625-1.5625v-2.7305c0-0.85938-0.70312-1.5625-1.5625-1.5625-0.86328 0-1.5625 0.70312-1.5625 1.5625z"/>
  <path d="m47.457 57.418h33.547c0.86328 0 1.5625-0.69922 1.5625-1.5586 0-0.86328-0.69922-1.5625-1.5625-1.5625h-33.547c-0.85938 0-1.5625 0.69922-1.5625 1.5625 0 0.85938 0.70312 1.5586 1.5625 1.5586z"/>
  <path d="m58.641 38.781h22.363c0.86328 0 1.5664-0.69922 1.5664-1.5586 0-0.86328-0.70312-1.5625-1.5664-1.5625h-22.363c-0.86328 0-1.5625 0.69922-1.5625 1.5625 0 0.85938 0.69922 1.5586 1.5625 1.5586z"/>
  <path d="m19.562 68.258c3.0742-1.9531 6.1523-1.9727 9.2305-0.003906 0.72656 0.46484 1.6914 0.25 2.1602-0.47656 0.46094-0.72656 0.25-1.6914-0.47656-2.1602-4.1992-2.6836-8.3945-2.6641-12.59 0-0.73047 0.46094-0.94531 1.4297-0.48438 2.1562 0.46484 0.73047 1.4297 0.94531 2.1602 0.48437z"/>
  <path d="m17.406 44.879c-0.75781 0.30859-1.4922 0.66797-2.1953 1.0742-5.3555 3.1016-8.9609 8.8984-8.9609 15.527 0 9.8945 8.0352 17.93 17.93 17.93 6.1641 0 11.609-3.1211 14.836-7.8672h37.617l14.449 14.453c0.44531 0.44922 1.1211 0.58203 1.7031 0.33984 0.58203-0.24219 0.96484-0.8125 0.96484-1.4453v-60.637c0-1.1367-0.45312-2.2305-1.2578-3.0312-0.80469-0.80859-1.8945-1.2617-3.0312-1.2617h-39.41c-3.7617-3.9492-9.0742-6.4141-14.961-6.4141-11.398 0-20.656 9.2578-20.656 20.656 0 3.9023 1.0859 7.5547 2.9727 10.676zm35.098-21.793c2.0508 3.2109 3.2422 7.0273 3.2422 11.117 0 9.5156-6.4453 17.539-15.207 19.93 1.0078 2.2422 1.5703 4.7305 1.5703 7.3477 0 2.4609-0.49609 4.8047-1.3945 6.9375h36.562c0.41797 0 0.8125 0.16797 1.1055 0.46094l12.242 12.238v-56.863c0-0.30859-0.12109-0.60547-0.33984-0.82422s-0.51562-0.34375-0.82422-0.34375zm-33.215 24.418c-0.015624 0.003906-0.03125 0.011719-0.046874 0.015625-0.85938 0.30469-1.6836 0.6875-2.4648 1.1406-4.4258 2.5586-7.4023 7.3477-7.4023 12.82 0 8.168 6.6328 14.805 14.805 14.805 8.1719 0 14.805-6.6367 14.805-14.805 0-2.4258-0.58594-4.7227-1.625-6.7422-0.74609 0.082031-1.5039 0.12109-2.2695 0.12109-6.3359 0-12.008-2.8594-15.801-7.3555zm8.5977-6.3711c4.8047 3.0469 9.6055 3.0664 14.41-0.003906 0.72656-0.46484 0.94141-1.4336 0.47656-2.1562-0.46875-0.73047-1.4336-0.94141-2.1602-0.47656-3.6836 2.3555-7.3672 2.3359-11.051-0.003906-0.72656-0.46094-1.6953-0.24609-2.1562 0.48437-0.46094 0.72656-0.24609 1.6914 0.48047 2.1562zm12.008-13.297v3.1836c0 0.86328 0.69922 1.5625 1.5625 1.5625s1.5625-0.69922 1.5625-1.5625v-3.1836c0-0.85938-0.69922-1.5625-1.5625-1.5625s-1.5625 0.70312-1.5625 1.5625zm-12.73 0v3.1836c0 0.86328 0.69922 1.5625 1.5625 1.5625 0.85938 0 1.5625-0.69922 1.5625-1.5625v-3.1836c0-0.85938-0.70312-1.5625-1.5625-1.5625-0.86328 0-1.5625 0.70312-1.5625 1.5625z"/>
 </g>
<text x="0.0" y="117.5" font-size="5.0" font-weight="bold" font-family="Arbeit Regular, Helvetica, Arial-Unicode, Arial, Sans-serif" fill="#000000">Created by Arif Subekti</text><text x="0.0" y="122.5" font-size="5.0" font-weight="bold" font-family="Arbeit Regular, Helvetica, Arial-Unicode, Arial, Sans-serif" fill="#000000">from Noun Project</text></svg>