<?xml version="1.0" encoding="utf-8"?>
<svg xmlns="http://www.w3.org/2000/svg" height="128" width="128" viewBox="0 0 128 128">
  <g>
    <ellipse cy="64" cx="64" ry="64" rx="64" fill="#E0E0E0" />
    <path id="path1" transform="rotate(0,64,64) translate(25,25.0000674127648) scale(2.43749680370512,2.43749680370512)" fill="black" d="M11.075022,18.608982L12.487025,20.024982 6.1170125,26.379984 4.7050099,24.963983z M11.620204,14.937551L2.0020046,24.460983 2.0000038,29.999985 5.9440122,29.999985 7.0150144,28.928985 9.6430199,28.928985 9.6430199,25.713983 12.857026,25.713983 12.857026,22.515983 16.072033,22.503982 16.072033,19.878326 16.063871,19.873758C14.132429,18.76178,12.58077,17.061134,11.655763,15.018692z M24.124451,6.1897272C23.730573,6.1896023 23.33657,6.339342 23.036068,6.6393207 22.746066,6.9293002 22.586064,7.3142732 22.586064,7.724244 22.586064,8.1342152 22.746066,8.5191878 23.036068,8.8091677 23.637072,9.4081258 24.612079,9.4081258 25.212083,8.8091677 25.502085,8.5191878 25.662086,8.1332158 25.661086,7.724244 25.661086,7.3132733 25.502085,6.9293002 25.212083,6.6393207 24.912081,6.3398417 24.518328,6.1898521 24.124451,6.1897272z M24.124076,4.1909932C25.029832,4.1909932 25.935588,4.5354689 26.625093,5.2244204 27.293097,5.8913735 27.6611,6.7793106 27.6611,7.7232441 27.6621,8.6681775 27.294098,9.556115 26.625093,10.224069 25.936088,10.913019 25.030082,11.256995 24.124075,11.256995 23.218069,11.256995 22.312063,10.913019 21.623058,10.224069L21.622058,10.224069C20.954054,9.556115 20.586051,8.6681775 20.586051,7.724244 20.586051,6.7793106 20.954054,5.8923734 21.623058,5.2244204 22.312563,4.5354689 23.218319,4.1909932 24.124076,4.1909932z M21.357102,1.9999994C16.591113,1.9999994 12.71404,5.8770117 12.71404,10.643 12.71404,15.40899 16.591113,19.286001 21.357102,19.286001 26.123091,19.286001 30.000042,15.40899 30.000042,10.643 30.000042,5.8770117 26.123091,1.9999994 21.357102,1.9999994z M21.357102,0C27.226118,3.575733E-07 32.000042,4.7739848 32.000042,10.643 32.000042,16.510979 27.226118,21.286001 21.357102,21.286001 20.256845,21.286001 19.195014,21.11813 18.19588,20.806658L18.177672,20.800733 18.072037,20.861982 18.072037,24.495983 14.85703,24.507984 14.85703,27.713985 11.643024,27.713985 11.643024,30.928985 7.8440158,30.928985 6.7720139,31.999987 0,31.999987 0.001999855,23.626984 10.934461,12.802395 10.930679,12.785068C10.788651,12.092917 10.714041,11.376498 10.714041,10.643 10.714041,4.7739848 15.489063,3.575733E-07 21.357102,0z" />
  </g>
</svg>

